<svg role="img" aria-labelledby="title" xmlns="http://www.w3.org/2000/svg" width="305" height="365" viewBox="0 0 305 365" version="1.1">
<title id="title">MERO 동아리 로고</title>
	<path d="M 171.093 20.271 C 169.409 24.421, 168.001 26.118, 164.477 28.247 C 162.014 29.734, 160 31.323, 160 31.777 C 160 32.231, 162.241 33.550, 164.980 34.707 C 168.786 36.315, 170.612 37.886, 172.730 41.374 C 174.253 43.883, 175.862 45.951, 176.305 45.968 C 176.748 45.986, 178.170 43.638, 179.465 40.750 C 181.249 36.774, 182.934 34.810, 186.410 32.658 C 188.935 31.095, 191 29.666, 191 29.481 C 191 29.297, 188.605 28.050, 185.679 26.710 C 181.684 24.881, 179.627 23.119, 177.429 19.639 C 175.818 17.089, 174.215 15.003, 173.866 15.002 C 173.518 15.001, 172.270 17.372, 171.093 20.271 M 101.035 53.934 C 99.492 56.818, 99.778 59.489, 101.829 61.345 C 105.645 64.799, 111 62.337, 111 57.129 C 111 53.525, 109.316 52, 105.335 52 C 103.131 52, 101.734 52.628, 101.035 53.934 M 186.508 83.974 C 186.164 85.060, 184.783 86.812, 183.441 87.868 C 180.618 90.088, 180.361 91, 182.556 91 C 183.412 91, 185.437 92.450, 187.056 94.223 C 188.675 95.995, 190 96.836, 190 96.091 C 190 95.346, 191.545 93.279, 193.433 91.498 L 196.867 88.260 194.226 87.057 C 192.774 86.396, 190.979 84.987, 190.236 83.927 C 188.513 81.466, 187.299 81.481, 186.508 83.974 M 52.409 90.328 C 51.611 91.241, 51.706 91.936, 52.765 92.925 C 53.980 94.061, 54.351 94.055, 55.089 92.888 C 56.784 90.209, 54.458 87.987, 52.409 90.328 M 128.500 98.531 C 119.150 100.340, 106.888 102.601, 101.250 103.556 C 93.230 104.915, 91.001 105.642, 91.003 106.896 C 91.005 107.778, 92.987 118.850, 95.408 131.500 C 97.828 144.150, 100.127 156.477, 100.516 158.893 L 101.224 163.287 110.862 162.643 C 116.163 162.289, 124.862 161.708, 130.194 161.353 L 139.888 160.707 140.571 163.427 C 140.946 164.922, 140.859 166.517, 140.377 166.969 C 139.895 167.421, 132.798 168.254, 124.606 168.819 C 116.415 169.384, 109.440 170.296, 109.106 170.845 C 108.773 171.394, 107.169 176.400, 105.541 181.970 L 102.583 192.096 94.395 197.658 L 86.207 203.220 80.353 202.545 C 74.598 201.882, 74.442 201.930, 71.045 205.445 C 67.860 208.739, 67.717 209.145, 69.210 210.638 C 70.702 212.131, 71.063 212.091, 73.819 210.129 C 77.397 207.581, 82 207.271, 82 209.577 C 82 211.283, 77.343 216.386, 75.104 217.132 C 73.935 217.522, 73.935 217.924, 75.104 219.795 C 75.862 221.008, 76.756 222, 77.093 222 C 79.280 222, 84.776 216.717, 86.936 212.539 C 88.565 209.388, 91.248 206.333, 94.293 204.165 C 96.928 202.288, 99.282 200.949, 99.523 201.189 C 99.763 201.430, 98.851 205.198, 97.495 209.563 C 96.139 213.929, 95.023 217.613, 95.015 217.750 C 95.007 217.887, 95.654 218, 96.454 218 C 97.636 218, 114.396 227.063, 115.788 228.455 C 116.004 228.670, 114.340 231.945, 112.090 235.732 C 109.841 239.518, 108 243.312, 108 244.163 C 108 245.014, 110.502 251.674, 113.559 258.963 C 116.617 266.252, 118.883 272.451, 118.595 272.739 C 118.307 273.027, 110.968 274.500, 102.286 276.013 C 86.249 278.807, 70.768 282.438, 68.017 284.050 C 66.681 284.833, 66.679 284.941, 68 284.955 C 72.173 285, 130.072 280.647, 180.500 276.497 C 197 275.139, 213.988 273.750, 218.250 273.410 C 222.512 273.070, 226 272.436, 226 272.001 C 226 270.617, 218.186 270.034, 190.873 269.379 L 164.246 268.740 158.169 256.620 C 152.132 244.578, 152.089 244.432, 151.523 233.872 L 150.953 223.245 160.657 221.497 C 165.995 220.536, 171.361 219.750, 172.581 219.750 C 174.518 219.750, 174.887 219.059, 175.478 214.333 C 176.099 209.363, 175.886 208.486, 172.897 203.708 C 171.106 200.844, 168.976 197.713, 168.165 196.750 C 167.354 195.787, 167.097 195.053, 167.595 195.117 C 168.093 195.182, 171.076 198.018, 174.226 201.420 L 179.951 207.606 178.872 217.053 C 178 224.692, 177.140 227.686, 174.377 232.698 C 171.481 237.951, 171.059 239.515, 171.608 242.948 C 172.154 246.363, 172.628 247, 174.628 247 C 176.754 247, 177 246.557, 177 242.723 C 177 239.199, 177.968 236.627, 180.603 233.149 C 180.749 232.956, 182.473 234.022, 184.434 235.518 C 186.915 237.410, 188.005 239.038, 188.015 240.869 C 188.036 244.449, 189.365 246.272, 191.620 245.818 C 193.126 245.514, 193.482 244.588, 193.409 241.162 C 193.330 237.413, 192.687 236.245, 188.197 231.693 L 183.075 226.500 184.017 220 C 184.536 216.425, 184.969 211.451, 184.980 208.946 C 184.997 205.045, 184.500 203.908, 181.513 201.012 C 178.187 197.789, 178.054 197.393, 178.633 192.468 C 179.240 187.303, 179.239 187.302, 172.120 177.662 C 168.204 172.360, 165 167.501, 165 166.863 C 165 166.021, 162.440 165.885, 155.611 166.365 L 146.222 167.025 145.812 163.512 C 145.410 160.074, 145.477 160, 148.981 160 C 151.938 160, 154.540 158.492, 163.922 151.339 L 175.282 142.679 174.595 129.669 C 174.218 122.513, 173.592 116.094, 173.204 115.404 C 172.817 114.714, 167.554 109.841, 161.509 104.575 C 153.489 97.589, 149.839 95.033, 148.009 95.121 C 146.629 95.187, 137.850 96.722, 128.500 98.531 M 141.500 101.555 C 140.950 101.774, 130.910 103.716, 119.189 105.871 C 107.468 108.025, 97.678 109.989, 97.433 110.234 C 97.188 110.479, 98.360 117.839, 100.037 126.590 C 101.715 135.340, 103.680 145.775, 104.404 149.777 C 105.128 153.780, 105.896 157.212, 106.110 157.405 C 106.325 157.598, 116.175 157.013, 128 156.105 L 149.500 154.454 149.222 148.477 C 149.070 145.190, 148.514 134.625, 147.987 125 C 147.460 115.375, 147.023 106.037, 147.015 104.250 C 147.002 101.527, 146.635 101.013, 144.750 101.079 C 143.512 101.122, 142.050 101.337, 141.500 101.555 M 244.573 113.567 C 244.218 114.979, 242.597 116.892, 240.970 117.817 C 239.344 118.743, 238.010 119.783, 238.006 120.129 C 238.003 120.474, 239.337 121.311, 240.971 121.988 C 242.605 122.665, 244.821 124.607, 245.895 126.303 L 247.848 129.387 249.564 125.787 C 250.508 123.808, 252.343 121.619, 253.640 120.925 C 254.938 120.230, 256 119.343, 256 118.952 C 256 118.562, 254.672 117.693, 253.049 117.020 C 251.426 116.348, 249.390 114.718, 248.526 113.399 C 246.505 110.316, 245.377 110.364, 244.573 113.567 M 197.543 123.931 C 197.226 124.443, 197.425 125.144, 197.984 125.490 C 198.543 125.835, 199 125.416, 199 124.559 C 199 122.802, 198.400 122.544, 197.543 123.931 M 26.347 125.510 C 24.877 126.603, 24.726 127.252, 25.609 128.691 C 27.320 131.482, 30.443 130.993, 30.804 127.878 C 31.170 124.721, 28.977 123.556, 26.347 125.510 M 133.200 130.200 C 131.726 131.674, 131.637 136.454, 133.035 139.066 C 134.202 141.246, 136.998 141.602, 138.800 139.800 C 140.622 137.978, 140.247 132.534, 138.171 130.655 C 135.999 128.689, 134.819 128.581, 133.200 130.200 M 109.430 133.467 C 106.339 138.184, 110.208 148.285, 114.478 146.647 C 118.234 145.205, 118.766 136.609, 115.333 132.816 C 113.095 130.343, 111.350 130.536, 109.430 133.467 M 217.543 149.931 C 216.860 151.036, 218.437 152.230, 219.361 151.306 C 220.311 150.355, 220.134 149, 219.059 149 C 218.541 149, 217.859 149.419, 217.543 149.931 M 188.571 157.571 C 186.598 159.545, 186.598 160.455, 188.569 162.427 C 189.754 163.611, 190.612 163.743, 192.069 162.963 C 194.246 161.798, 194.601 159.001, 192.800 157.200 C 191.219 155.619, 190.457 155.685, 188.571 157.571 M 67.639 158.694 C 66.444 159.889, 66.994 162, 68.500 162 C 69.325 162, 70 161.352, 70 160.559 C 70 158.888, 68.573 157.761, 67.639 158.694 M 135.559 173.217 C 123.491 174.225, 113.511 175.155, 113.382 175.285 C 112.522 176.144, 102.781 211.114, 103.266 211.599 C 103.600 211.933, 114.295 211.398, 127.034 210.411 C 148.998 208.709, 150.238 208.505, 151.013 206.466 C 151.463 205.283, 153.264 197.382, 155.016 188.907 C 156.767 180.433, 158.388 173.194, 158.617 172.819 C 158.845 172.445, 158.688 171.969, 158.266 171.762 C 157.845 171.555, 147.626 172.210, 135.559 173.217 M 28.378 182.809 L 26.256 185.507 29.037 188.055 L 31.817 190.602 34.346 187.433 L 36.875 184.264 34.437 183.153 C 33.097 182.543, 32 181.583, 32 181.021 C 32 179.293, 30.600 179.984, 28.378 182.809 M 136.500 226.123 C 132.100 227.063, 127.309 227.869, 125.854 227.916 C 123.672 227.985, 122.370 229.344, 118.438 235.652 C 113.961 242.834, 113.733 243.526, 114.727 246.902 C 116.120 251.638, 123.934 270.261, 124.986 271.354 C 126.065 272.475, 158 269.902, 158 268.694 C 158 268.183, 155.570 263.335, 152.601 257.919 L 147.202 248.073 146.480 236.521 C 146.083 230.167, 145.475 224.844, 145.129 224.691 C 144.783 224.539, 140.900 225.183, 136.500 226.123 M 61.033 306.461 C 60.366 307.264, 59.632 309.627, 59.403 311.711 C 58.487 320.025, 57.148 354.222, 57.684 355.618 C 58.058 356.595, 59.314 357.003, 61.327 356.804 L 64.400 356.500 64.517 335.950 C 64.582 324.648, 64.992 314.822, 65.430 314.114 C 65.955 313.264, 69.570 318.709, 76.086 330.164 C 81.510 339.699, 86.563 347.632, 87.316 347.793 C 89.174 348.191, 90.023 346.867, 94.230 337 C 98.605 326.741, 103.369 317.710, 104.627 317.291 C 105.134 317.122, 107.218 324.920, 109.258 334.620 C 111.298 344.319, 113.480 352.873, 114.106 353.628 C 115.778 355.643, 118.770 355.299, 119.497 353.009 C 119.845 351.914, 119.870 350.598, 119.552 350.085 C 119.235 349.572, 117.438 341.690, 115.559 332.570 C 113.679 323.451, 111.010 313.516, 109.626 310.494 C 107.507 305.866, 106.696 305, 104.481 305 C 102.076 305, 101.248 306.273, 94.749 319.976 C 89.309 331.447, 87.353 334.708, 86.392 333.910 C 85.701 333.337, 82.594 328.379, 79.487 322.891 C 70.928 307.775, 64.610 302.150, 61.033 306.461 M 230.703 311.442 C 221.902 314.582, 216.067 320.477, 214.519 327.794 C 213.434 332.922, 215.703 340.572, 219.175 343.494 C 221.719 345.635, 223.126 345.994, 228.827 345.956 C 236.484 345.906, 241.514 344.371, 246.511 340.559 C 251.302 336.905, 254 331.266, 254 324.908 C 254 318.596, 251.369 313.878, 246.583 311.606 C 242.499 309.669, 235.867 309.600, 230.703 311.442 M 195.270 312.031 C 189.825 313.135, 182.486 316.392, 178.372 319.530 C 174.586 322.418, 174 322.541, 174 320.450 C 174 319.598, 173.313 317.573, 172.474 315.950 C 171.408 313.889, 170.203 313, 168.474 313 C 167.113 313, 166 313.511, 166 314.136 C 166 316.744, 172.281 347.643, 173.137 349.250 C 174.061 350.982, 178.475 351.696, 179.321 350.250 C 179.562 349.837, 179.158 347.250, 178.424 344.500 C 175.191 332.399, 177.401 326.006, 186.600 320.840 C 192.012 317.802, 197.084 317.039, 203.314 318.326 L 207.128 319.115 206.814 315.307 C 206.518 311.719, 206.298 311.491, 203 311.337 C 201.075 311.247, 197.596 311.559, 195.270 312.031 M 232.611 316.003 C 225.943 318.607, 223.213 321.458, 221.393 327.720 C 219.632 333.778, 220.260 338.533, 223.016 340.008 C 225.699 341.444, 231.875 341.226, 237.724 339.489 C 244.772 337.396, 249 332.530, 249 326.512 C 249 320.841, 247.318 317.216, 243.855 315.425 C 240.303 313.588, 238.565 313.677, 232.611 316.003 M 134.849 318.881 C 129.648 322.179, 126.597 326.057, 124.479 332.060 C 121.425 340.714, 123.587 348.117, 130.206 351.672 C 134.720 354.097, 145.003 353.867, 151.103 351.206 C 156.392 348.898, 163 343.450, 163 341.396 C 163 339.369, 161.436 339.649, 154.530 342.912 C 142.412 348.638, 135.741 349.029, 131.969 344.234 C 130.886 342.857, 130 341.366, 130 340.921 C 130 340.476, 131.030 338.914, 132.289 337.451 C 134.397 335, 135.407 334.730, 145.105 334.029 C 150.895 333.610, 156.610 332.744, 157.805 332.105 C 160.701 330.555, 161.681 326.318, 159.894 323.069 C 157.833 319.321, 150.594 316, 144.484 316 C 140.590 316, 138.322 316.678, 134.849 318.881 M 141.707 321.558 C 137.169 323.193, 132 326.724, 132 328.187 C 132 329.784, 149.988 328.714, 152.750 326.953 C 153.988 326.164, 155 325.188, 155 324.783 C 155 323.707, 150.893 321.320, 148 320.714 C 146.625 320.426, 143.793 320.806, 141.707 321.558" stroke="none" fill="#1640a8" fill-rule="evenodd"/>
</svg>