<svg xmlns="http://www.w3.org/2000/svg" viewBox="0 0 800 500" width="800" height="500">
  <defs>
    <linearGradient id="gwumy75" x1="0" y1="0" x2="1" y2="1">
      <stop offset="0" stop-color="#a78bfa"/>
      <stop offset="1" stop-color="#f43f5e"/>
    </linearGradient>
  </defs>
  <rect width="800" height="500" fill="#0b0b12"/>
  <rect width="800" height="500" fill="url(#gwumy75)" opacity="0.22"/>
  <g fill="none" stroke="rgba(255,255,255,0.08)" stroke-width="1">
    <line x1="0" y1="0" x2="0" y2="500"/><line x1="50" y1="0" x2="50" y2="500"/><line x1="100" y1="0" x2="100" y2="500"/><line x1="150" y1="0" x2="150" y2="500"/><line x1="200" y1="0" x2="200" y2="500"/><line x1="250" y1="0" x2="250" y2="500"/><line x1="300" y1="0" x2="300" y2="500"/><line x1="350" y1="0" x2="350" y2="500"/><line x1="400" y1="0" x2="400" y2="500"/><line x1="450" y1="0" x2="450" y2="500"/><line x1="500" y1="0" x2="500" y2="500"/><line x1="550" y1="0" x2="550" y2="500"/><line x1="600" y1="0" x2="600" y2="500"/><line x1="650" y1="0" x2="650" y2="500"/><line x1="700" y1="0" x2="700" y2="500"/><line x1="750" y1="0" x2="750" y2="500"/>
    <line x1="0" y1="0" x2="800" y2="0"/><line x1="0" y1="50" x2="800" y2="50"/><line x1="0" y1="100" x2="800" y2="100"/><line x1="0" y1="150" x2="800" y2="150"/><line x1="0" y1="200" x2="800" y2="200"/><line x1="0" y1="250" x2="800" y2="250"/><line x1="0" y1="300" x2="800" y2="300"/><line x1="0" y1="350" x2="800" y2="350"/><line x1="0" y1="400" x2="800" y2="400"/><line x1="0" y1="450" x2="800" y2="450"/>
  </g>
  <circle cx="400" cy="210" r="70" fill="none" stroke="url(#gwumy75)" stroke-width="6"/>
  <text x="400" y="220" font-family="monospace" font-size="52" font-weight="700" fill="#fff" text-anchor="middle" opacity="0.9">M</text>
  <text x="400" y="340" font-family="sans-serif" font-size="34" font-weight="700" fill="#eaeaf0" text-anchor="middle">Gesture Arm</text>
  <text x="400" y="380" font-family="monospace" font-size="16" fill="rgba(255,255,255,0.5)" text-anchor="middle">placeholder — replace in /public</text>
</svg>
